<svg xmlns="http://www.w3.org/2000/svg" xmlns:xlink="http://www.w3.org/1999/xlink" width="11.73" height="15.64" viewBox="0 0 11.73 15.64">
  <defs>
    <linearGradient id="linear-gradient" x1="0.5" x2="0.5" y2="1" gradientUnits="objectBoundingBox">
      <stop offset="0" stop-color="#04c785"/>
      <stop offset="1" stop-color="#0966cb"/>
    </linearGradient>
  </defs>
  <path id="Icon_awesome-hourglass-start" data-name="Icon awesome-hourglass-start" d="M11,0H.733A.733.733,0,0,0,0,.733v.489a.733.733,0,0,0,.733.733A6.062,6.062,0,0,0,4.425,7.82,6.062,6.062,0,0,0,.733,13.685.733.733,0,0,0,0,14.418v.489a.733.733,0,0,0,.733.733H11a.733.733,0,0,0,.733-.733v-.489A.733.733,0,0,0,11,13.685,6.062,6.062,0,0,0,7.306,7.82,6.062,6.062,0,0,0,11,1.955a.733.733,0,0,0,.733-.733V.733A.733.733,0,0,0,11,0ZM9.042,13.685H2.688c0-2.366,1.411-4.4,3.177-4.4S9.042,11.318,9.042,13.685Z" fill="url(#linear-gradient)"/>
</svg>